<svg xmlns="http://www.w3.org/2000/svg" version="1.1" xmlns:xlink="http://www.w3.org/1999/xlink" xmlns:svgjs="http://svgjs.dev/svgjs" width="24" height="24"><svg width="24" height="24" viewBox="0 0 24 24" fill="none" xmlns="http://www.w3.org/2000/svg">
<g clip-path="url(#clip0_142_99)">
<rect width="24" height="24" rx="6" fill="white"></rect>
<path d="M17.0723 12.5342C17.0305 12.5562 16.9822 12.5807 16.9273 12.607C16.71 12.7113 16.39 12.8454 15.9595 12.9779C15.098 13.243 13.7984 13.5 12 13.5C10.2016 13.5 8.90198 13.243 8.04045 12.9779C7.60999 12.8454 7.28997 12.7113 7.07269 12.607C7.0178 12.5807 6.9695 12.5562 6.92765 12.5342L2 14.9891C2 16.652 6.47715 18 12 18C17.5228 18 22 16.652 22 14.9891L17.0723 12.5342Z" fill="#09090B"></path>
<path d="M8.02521 11.9196C8.11908 11.9531 8.22213 11.9875 8.33456 12.0221C9.09803 12.257 10.2984 12.5 12 12.5C13.7017 12.5 14.902 12.257 15.6655 12.0221C15.7788 11.9873 15.8825 11.9525 15.9769 11.9188L15.0589 8.68909C15.0589 8.68909 17.7641 8.4 19.5 8.4C20 8.4 21.2942 7.95679 21.2942 7.95679C21.2942 7.95679 20.4072 6.99266 19.1765 6.53019C18.7332 6.36359 18.0091 6.05369 17.2914 5.74649C16.6048 5.45262 15.9239 5.16115 15.5 5C14.7599 4.71861 12.8162 4.04085 12.0589 4.00169C11.3842 3.96681 10.353 4.48315 10.353 4.48315L8.02521 11.9196Z" fill="#09090B"></path>
</g>
<defs>
<clipPath id="SvgjsClipPath1017">
<rect width="24" height="24" fill="white"></rect>
</clipPath>
</defs>
</svg><style>@media (prefers-color-scheme: light) { :root { filter: none; } }
@media (prefers-color-scheme: dark) { :root { filter: none; } }
</style></svg>