<svg xmlns="http://www.w3.org/2000/svg" version="1.1" xmlns:xlink="http://www.w3.org/1999/xlink" xmlns:svgjs="http://svgjs.dev/svgjs" width="24" height="24"><svg width="24" height="24" viewBox="0 0 24 24" fill="none" xmlns="http://www.w3.org/2000/svg">
<path d="M17.0723 13.5342C17.0305 13.5562 16.9822 13.5807 16.9273 13.607C16.71 13.7113 16.39 13.8454 15.9595 13.9779C15.098 14.243 13.7984 14.5 12 14.5C10.2016 14.5 8.90198 14.243 8.04045 13.9779C7.60999 13.8454 7.28997 13.7113 7.07269 13.607C7.0178 13.5807 6.9695 13.5562 6.92765 13.5342L2 15.9891C2 17.652 6.47715 19 12 19C17.5228 19 22 17.652 22 15.9891L17.0723 13.5342Z" fill="#09090B"></path>
<path d="M8.02521 12.9196C8.11908 12.9531 8.22213 12.9875 8.33456 13.0221C9.09803 13.257 10.2984 13.5 12 13.5C13.7017 13.5 14.902 13.257 15.6655 13.0221C15.7788 12.9873 15.8825 12.9525 15.9769 12.9188L15.0589 9.68909C15.0589 9.68909 17.7641 9.4 19.5 9.4C20 9.4 21.2942 8.95679 21.2942 8.95679C21.2942 8.95679 20.4072 7.99266 19.1765 7.53019C18.7332 7.36359 18.0091 7.05369 17.2914 6.74649C16.6048 6.45262 15.9239 6.16115 15.5 6C14.7599 5.71861 12.8162 5.04085 12.0589 5.00169C11.3842 4.96681 10.353 5.48315 10.353 5.48315L8.02521 12.9196Z" fill="#09090B"></path>
</svg><style>@media (prefers-color-scheme: light) { :root { filter: none; } }
@media (prefers-color-scheme: dark) { :root { filter: none; } }
</style></svg>